<svg width="24" height="24" viewBox="0 0 24 24" fill="none" xmlns="http://www.w3.org/2000/svg">
<path d="M12 0C5.38341 0 0 5.27807 0 11.7662C0 18.2537 5.38341 23.5325 12 23.5325C18.6172 23.5325 24 18.2537 24 11.7662C24 5.27807 18.6172 0 12 0ZM8.8666 16.9016H6.40627V9.64446H8.8666V16.9016ZM7.63697 8.65329H7.62005C6.79532 8.65329 6.26152 8.0958 6.26152 7.39919C6.26152 6.68769 6.81191 6.1458 7.65289 6.1458C8.49461 6.1458 9.01283 6.68801 9.02868 7.39919C9.02875 8.0958 8.49461 8.65329 7.63697 8.65329ZM17.7381 16.9016H15.2782V13.0188C15.2782 12.043 14.9217 11.378 14.0315 11.378C13.3519 11.378 12.9473 11.8266 12.7693 12.2604C12.7038 12.4152 12.6879 12.6315 12.6879 12.8482V16.9013H10.2272C10.2272 16.9013 10.2598 10.3247 10.2272 9.64407H12.6879V10.6714C13.0149 10.1771 13.5995 9.47295 14.9054 9.47295C16.5244 9.47295 17.7373 10.5103 17.7373 12.7403V16.9016H17.7381V16.9016Z" fill="#2F2E41"/>
<path d="M12.6881 10.6975V10.6721C12.6833 10.6803 12.6774 10.6894 12.6722 10.6975H12.6881Z" fill="#2F2E41"/>
</svg>
