<svg width="24" height="24" viewBox="0 0 24 24" fill="none" xmlns="http://www.w3.org/2000/svg">
<path d="M12 0C5.38341 0 0 5.25972 0 11.7253C0 18.1903 5.38341 23.4507 12 23.4507C18.6172 23.4507 24 18.1903 24 11.7253C24 5.25972 18.6172 0 12 0ZM8.8666 16.8429H6.40627V9.61094H8.8666V16.8429ZM7.63697 8.62322H7.62005C6.79532 8.62322 6.26152 8.06766 6.26152 7.37347C6.26152 6.66444 6.81191 6.12444 7.65289 6.12444C8.49461 6.12444 9.01283 6.66477 9.02868 7.37347C9.02875 8.06766 8.49461 8.62322 7.63697 8.62322ZM17.7381 16.8429H15.2782V12.9735C15.2782 12.0012 14.9217 11.3385 14.0315 11.3385C13.3519 11.3385 12.9473 11.7855 12.7693 12.2178C12.7038 12.372 12.6879 12.5876 12.6879 12.8036V16.8426H10.2272C10.2272 16.8426 10.2598 10.2888 10.2272 9.61055H12.6879V10.6343C13.0149 10.1417 13.5995 9.44003 14.9054 9.44003C16.5244 9.44003 17.7373 10.4738 17.7373 12.696V16.8429H17.7381Z" fill="#F2F2F2"/>
<path d="M12.6881 10.6604V10.635C12.6833 10.6432 12.6774 10.6523 12.6722 10.6604H12.6881Z" fill="#F2F2F2"/>
</svg>
