<svg width="40" height="40" viewBox="0 0 40 40" fill="none" xmlns="http://www.w3.org/2000/svg">
<circle cx="20" cy="20" r="20" fill="#444950"/>
<g clip-path="url(#clip0)">
<path d="M20 20C20 19.1159 20.3512 18.2681 20.9763 17.643C21.6014 17.0179 22.4493 16.6667 23.3333 16.6667C24.2174 16.6667 25.0652 17.0179 25.6903 17.643C26.3155 18.2681 26.6666 19.1159 26.6666 20C26.6666 20.8841 26.3155 21.7319 25.6903 22.357C25.0652 22.9821 24.2174 23.3333 23.3333 23.3333C22.4493 23.3333 21.6014 22.9821 20.9763 22.357C20.3512 21.7319 20 20.8841 20 20ZM13.3333 26.6667C13.3333 25.7826 13.6845 24.9348 14.3096 24.3096C14.9347 23.6845 15.7826 23.3333 16.6666 23.3333H20V26.6667C20 27.5507 19.6488 28.3986 19.0237 29.0237C18.3985 29.6488 17.5507 30 16.6666 30C15.7826 30 14.9347 29.6488 14.3096 29.0237C13.6845 28.3986 13.3333 27.5507 13.3333 26.6667ZM20 10V16.6667H23.3333C24.2174 16.6667 25.0652 16.3155 25.6903 15.6904C26.3155 15.0652 26.6666 14.2174 26.6666 13.3333C26.6666 12.4493 26.3155 11.6014 25.6903 10.9763C25.0652 10.3512 24.2174 10 23.3333 10H20ZM13.3333 13.3333C13.3333 14.2174 13.6845 15.0652 14.3096 15.6904C14.9347 16.3155 15.7826 16.6667 16.6666 16.6667H20V10H16.6666C15.7826 10 14.9347 10.3512 14.3096 10.9763C13.6845 11.6014 13.3333 12.4493 13.3333 13.3333ZM13.3333 20C13.3333 20.8841 13.6845 21.7319 14.3096 22.357C14.9347 22.9821 15.7826 23.3333 16.6666 23.3333H20V16.6667H16.6666C15.7826 16.6667 14.9347 17.0179 14.3096 17.643C13.6845 18.2681 13.3333 19.1159 13.3333 20Z" fill="#F2F2F2"/>
</g>
<defs>
<clipPath id="clip0">
<rect width="20" height="20" fill="white" transform="translate(10 10)"/>
</clipPath>
</defs>
</svg>
