<svg width="40" height="40" viewBox="0 0 40 40" fill="none" xmlns="http://www.w3.org/2000/svg">
<circle cx="20" cy="20" r="20" fill="#444950"/>
<path d="M31.5462 18.6799L21.0671 8.44189C20.4631 7.8527 19.4851 7.8527 18.8791 8.44189L16.7081 10.5671L19.4681 13.2639C20.1131 13.0538 20.8471 13.1955 21.3571 13.6948C21.8731 14.198 22.0151 14.924 21.7951 15.5513L24.4532 18.1503C25.0982 17.9325 25.8402 18.0741 26.3532 18.5754C27.0742 19.2789 27.0742 20.4162 26.3532 21.1198C25.6342 21.8223 24.4722 21.8223 23.7532 21.1198C23.2142 20.5911 23.0792 19.8134 23.3492 19.1695L20.8601 16.7502V23.1257C21.0361 23.2098 21.2021 23.3241 21.3481 23.4658C22.0611 24.1703 22.0611 25.3056 21.3481 26.0062C20.6291 26.7107 19.4591 26.7107 18.7391 26.0062C18.0201 25.3037 18.0201 24.1703 18.7391 23.4677C18.9211 23.2918 19.1261 23.159 19.3441 23.071V16.6329C19.1271 16.544 18.9201 16.416 18.7441 16.2411C18.1991 15.7086 18.0681 14.9298 18.3481 14.2781L15.6361 11.6155L8.45 18.6321C7.85 19.2232 7.85 20.1798 8.45 20.7709L18.9301 31.008C19.5341 31.5982 20.5121 31.5982 21.1161 31.008L31.5462 20.8169C32.1513 20.2277 32.1513 19.2711 31.5462 18.6799Z" fill="#F2F2F2"/>
</svg>
