<svg width="40" height="40" viewBox="0 0 40 40" fill="none" xmlns="http://www.w3.org/2000/svg">
<circle cx="20" cy="20" r="20" fill="#444950"/>
<path d="M11 11H29V28.588H11V11ZM27.5255 24.3933C27.3943 23.5908 26.8595 22.9166 25.2733 22.2878C24.7213 22.035 24.1077 21.8591 23.9255 21.4524C23.8572 21.2106 23.8468 21.0787 23.891 20.9358C24.0035 20.4624 24.5772 20.3202 25.0272 20.4521C25.3197 20.54 25.5898 20.7599 25.7593 21.1116C26.5348 20.6162 26.5347 20.6162 27.0755 20.2872C26.873 19.9794 26.7725 19.8468 26.636 19.7156C26.1635 19.1989 25.5343 18.9351 24.5105 18.9578L23.9818 19.0231C23.4747 19.144 22.9917 19.4078 22.6993 19.7596C21.8442 20.7057 22.091 22.3545 23.126 23.0361C24.1497 23.7836 25.6468 23.9477 25.838 24.652C26.018 25.5094 25.1855 25.7842 24.3635 25.6853C23.7553 25.5533 23.4185 25.2558 23.0472 24.7062L21.6747 25.4764C21.8322 25.8282 22.0122 25.9813 22.2823 26.2891C23.5872 27.576 26.8497 27.51 27.4355 25.5533C27.4573 25.4874 27.6155 25.0367 27.491 24.3442L27.5255 24.3933ZM20.7882 19.0839H19.1023C19.1023 20.5041 19.0955 21.9156 19.0955 23.338C19.0955 24.2408 19.1427 25.0697 18.992 25.3247C18.7445 25.8296 18.107 25.7651 17.8175 25.6765C17.5205 25.5328 17.3698 25.335 17.195 25.0499C17.1478 24.9729 17.1125 24.9063 17.0998 24.9063L15.731 25.7307C15.9598 26.1924 16.2935 26.5896 16.724 26.8424C17.3653 27.2161 18.227 27.3371 19.1292 27.1392C19.7165 26.9736 20.2227 26.6328 20.4875 26.1052C20.87 25.4236 20.789 24.5882 20.7852 23.6531C20.7942 22.1479 20.7852 20.6419 20.7852 19.1249L20.7882 19.0839Z" fill="#F2F2F2"/>
</svg>
