<svg width="40" height="40" viewBox="0 0 40 40" fill="none" xmlns="http://www.w3.org/2000/svg">
<circle cx="20" cy="20" r="20" fill="#444950"/>
<path d="M27.1129 20.6766H25.5662C25.7238 21.1082 25.81 21.5741 25.81 22.0596V27.9053C25.81 28.1077 25.7747 28.302 25.7106 28.4827H28.2677C29.2229 28.4827 30 27.7056 30 26.7504V23.5637C30 21.9718 28.7048 20.6766 27.1129 20.6766Z" fill="#F2F2F2"/>
<path d="M14.19 22.0596C14.19 21.5741 14.2762 21.1083 14.4338 20.6766H12.8871C11.2952 20.6766 10 21.9718 10 23.5637V26.7505C10 27.7057 10.7771 28.4828 11.7323 28.4828H14.2894C14.2253 28.302 14.19 28.1077 14.19 27.9053V22.0596Z" fill="white"/>
<path d="M21.768 19.1725H18.232C16.6401 19.1725 15.3449 20.4676 15.3449 22.0596V27.9053C15.3449 28.2242 15.6034 28.4827 15.9223 28.4827H24.0777C24.3966 28.4827 24.6552 28.2242 24.6552 27.9053V22.0596C24.6552 20.4676 23.36 19.1725 21.768 19.1725Z" fill="#F2F2F2"/>
<path d="M20 11.5172C18.0855 11.5172 16.5279 13.0748 16.5279 14.9894C16.5279 16.288 17.2447 17.4222 18.3032 18.0176C18.8052 18.3001 19.3841 18.4615 20 18.4615C20.6159 18.4615 21.1948 18.3001 21.6968 18.0176C22.7554 17.4222 23.4721 16.288 23.4721 14.9894C23.4721 13.0748 21.9145 11.5172 20 11.5172Z" fill="#F2F2F2"/>
<path d="M13.9031 14.7535C12.4712 14.7535 11.3064 15.9183 11.3064 17.3502C11.3064 18.782 12.4712 19.9469 13.9031 19.9469C14.2663 19.9469 14.6121 19.8716 14.9263 19.7364C15.4695 19.5025 15.9174 19.0885 16.1946 18.57C16.3891 18.206 16.4998 17.7908 16.4998 17.3502C16.4998 15.9184 15.3349 14.7535 13.9031 14.7535Z" fill="#F2F2F2"/>
<path d="M26.097 14.7535C24.6652 14.7535 23.5003 15.9183 23.5003 17.3502C23.5003 17.7909 23.611 18.2061 23.8055 18.57C24.0827 19.0886 24.5305 19.5026 25.0737 19.7364C25.3879 19.8716 25.7338 19.9469 26.097 19.9469C27.5288 19.9469 28.6937 18.782 28.6937 17.3502C28.6937 15.9183 27.5288 14.7535 26.097 14.7535Z" fill="#F2F2F2"/>
</svg>
