<svg width="60" height="60" viewBox="0 0 60 60" fill="none" xmlns="http://www.w3.org/2000/svg">
<path d="M17.7446 25.9396L4.6416 50.6262L16.5403 49.5269L22.2993 59.9981L35.4023 35.3115L17.7446 25.9396Z" fill="#E95454"/>
<path d="M19.2457 52.8097C19.6134 52.02 19.2288 51.0764 18.4597 50.6675L17.7056 50.266C16.9515 49.8365 16.6645 48.8816 17.0753 48.1088C17.4918 47.3228 18.471 47.0226 19.257 47.4391L21.388 48.5702C22.0464 48.9192 22.8718 48.6659 23.2113 48.0037L23.2639 47.9024C23.654 47.2778 23.4233 46.4524 22.7743 46.1091L16.4 42.7269C15.6234 42.3142 15.2426 41.3744 15.6046 40.5828C16.0042 39.7405 17.0134 39.4085 17.8257 39.8399L23.7385 42.9782C24.3969 43.3272 25.2223 43.0739 25.5712 42.4155L25.605 42.3292L25.6143 42.3104C25.9914 41.6201 25.7269 40.7535 25.0309 40.3839L21.7144 38.6243C20.9378 38.2116 20.557 37.2718 20.9246 36.4708C21.3204 35.6379 22.3334 35.2965 23.1457 35.728L26.8093 37.6733C27.494 38.0372 28.3119 37.7333 28.6664 37.043C28.672 37.0336 28.672 37.0336 28.6758 37.0242C28.6814 37.0148 28.6814 37.0148 28.6852 37.0054C29.0585 36.3245 28.8521 35.4766 28.1655 35.1146L24.2131 33.0173C23.4458 32.6103 23.065 31.6704 23.4271 30.8788C23.8266 30.0366 24.8358 29.7045 25.6481 30.136L35.3989 35.3115L22.2959 59.9981L18.6848 53.4344C18.9174 53.2768 19.12 53.0817 19.2457 52.8097Z" fill="#ED6362"/>
<path d="M42.2553 25.9396L55.3583 50.6262L43.4596 49.5269L37.7007 59.9981L24.5977 35.3115L42.2553 25.9396Z" fill="#ED6362"/>
<path d="M40.7547 52.8097C40.387 52.0199 40.7716 51.0764 41.5407 50.6674L42.2948 50.266C43.0489 49.8364 43.3359 48.8816 42.9251 48.1087C42.5086 47.3227 41.5294 47.0226 40.7434 47.439L38.6124 48.5702C37.954 48.9191 37.1286 48.6659 36.7891 48.0037L36.7365 47.9024C36.3464 47.2777 36.5771 46.4523 37.2262 46.109L43.6023 42.725C44.3789 42.3123 44.7597 41.3725 44.3976 40.5808C43.9981 39.7386 42.9889 39.4065 42.1766 39.838L36.2638 42.9763C35.6054 43.3252 34.78 43.072 34.4311 42.4136L34.3973 42.3273L34.3879 42.3085C34.0109 41.6182 34.2754 40.7515 34.9713 40.382L38.2879 38.6224C39.0645 38.2097 39.4453 37.2699 39.0776 36.4689C38.6818 35.636 37.6689 35.2946 36.8566 35.7261L33.1893 37.6751C32.5046 38.039 31.6867 37.7351 31.3321 37.0448C31.3265 37.0354 31.3265 37.0354 31.3228 37.026C31.3171 37.0167 31.3171 37.0167 31.3134 37.0073C30.9401 36.3263 31.1464 35.4784 31.833 35.1164L35.7855 33.0192C36.5527 32.6121 36.9335 31.6723 36.5715 30.8807C36.1719 30.0384 35.1627 29.7064 34.3504 30.1378L24.5996 35.3134L37.7026 59.9999L41.3137 53.4362C41.083 53.2768 40.8804 53.0817 40.7547 52.8097Z" fill="#E95454"/>
<path d="M29.9998 43.7868C42.0912 43.7868 51.8932 33.9848 51.8932 21.8934C51.8932 9.802 42.0912 0 29.9998 0C17.9084 0 8.10645 9.802 8.10645 21.8934C8.10645 33.9848 17.9084 43.7868 29.9998 43.7868Z" fill="#FFCC5B"/>
<path d="M32.9695 19.3816H19.0955C18.0169 19.3816 17.1315 18.4961 17.1315 17.4175L17.1465 17.2825V17.2524C17.1315 16.1138 18.06 15.1833 19.2006 15.1833H28.8163C30.0901 15.1833 31.2156 14.2398 31.2906 12.9642C31.3506 11.6304 30.287 10.5049 28.9514 10.5049H18.7654C17.6417 10.5049 16.8013 9.56134 16.8163 8.43581C16.8163 8.4208 16.8163 8.4208 16.8163 8.40579C16.8163 8.39079 16.8163 8.39079 16.8163 8.37578C16.8013 7.25213 17.6398 6.30669 18.7654 6.30669H29.4241C30.6828 6.30669 31.8084 5.36312 31.8834 4.10253C31.9434 2.75377 30.8798 1.64325 29.5442 1.64325H21.7386C13.7793 4.92416 8.17041 12.7503 8.17041 21.8934C8.17041 31.0364 13.7793 38.8607 21.7405 42.1379H31.6508C32.9095 42.1379 34.035 41.1943 34.1101 39.9337C34.1701 38.5849 33.1065 37.4763 31.7708 37.4763L20.4968 37.4744C19.1668 37.4744 18.0957 36.362 18.167 35.0151C18.2326 33.7546 19.3657 32.8072 20.6281 32.8072H24.9989C26.2558 32.7716 27.2706 31.7417 27.2706 30.4755C27.2706 29.1868 26.222 28.1363 24.9314 28.1363H18.3058C17.2272 28.1363 16.3417 27.2528 16.3567 26.1722V26.0072C16.2817 24.9435 17.1371 24.0431 18.2007 24.0431H32.8345C34.1082 24.0431 35.2337 23.0996 35.3088 21.839C35.3688 20.4921 34.3033 19.3816 32.9695 19.3816Z" fill="#FDBC4B"/>
<path d="M30 37.5195C21.3822 37.5195 14.3721 30.5074 14.3721 21.8915C14.3721 13.2756 21.3822 6.26544 30 6.26544C38.6178 6.26544 45.628 13.2775 45.628 21.8934C45.628 30.5093 38.6178 37.5195 30 37.5195Z" fill="#FFDB70"/>
<path opacity="0.2" d="M45.628 21.8934C45.628 13.5795 39.0962 6.77946 30.8967 6.31049H29.441C28.4806 6.31049 27.6233 7.03082 27.5652 7.99127C27.5201 9.01926 28.3305 9.86715 29.3491 9.86715L37.9482 9.86903C38.963 9.86903 39.779 10.7169 39.7246 11.7449C39.674 12.7072 38.8111 13.4294 37.8469 13.4294H34.5134C33.5548 13.4576 32.7801 14.2417 32.7801 15.2078C32.7801 16.1907 33.5811 16.9917 34.5641 16.9917H39.6177C40.4412 16.9917 41.1146 17.6671 41.1034 18.4887V18.6125C41.1597 19.4248 40.5087 20.1095 39.6965 20.1095H28.5369C27.5652 20.1095 26.7079 20.8298 26.6497 21.7902C26.6047 22.8182 27.4151 23.6661 28.4337 23.6661H39.0137C39.8372 23.6661 40.5106 24.3414 40.5106 25.1631L40.4993 25.2662V25.2888C40.5106 26.1573 39.8015 26.8664 38.933 26.8664H31.5983C30.6266 26.8664 29.7693 27.5867 29.7112 28.5584C29.6662 29.5751 30.4765 30.4343 31.4951 30.4343H39.2631C40.1204 30.4343 40.7601 31.1546 40.7488 32.0119C40.7488 32.0232 40.7488 32.0232 40.7488 32.0344C40.7488 32.0457 40.7488 32.0457 40.7488 32.0569C40.7601 32.9142 40.1204 33.6345 39.2631 33.6345H31.135C30.1745 33.6345 29.3172 34.3549 29.2591 35.3153C29.2141 36.3452 30.0244 37.1912 31.043 37.1912H33.1872C40.2836 35.713 45.628 29.4157 45.628 21.8934Z" fill="white"/>
<path d="M40.9099 18.4323H33.3089L30.9584 11.2027C30.6564 10.2741 29.3414 10.2741 29.0394 11.2027L26.6908 18.4323H19.0897C18.1124 18.4323 17.7053 19.6836 18.4969 20.2576L24.646 24.7259L22.2974 31.9556C21.9954 32.8841 23.0591 33.657 23.8507 33.083L29.9998 28.6146L36.1489 33.083C36.9406 33.657 38.0042 32.8841 37.7022 31.9556L35.3536 24.7259L41.5027 20.2576C42.2924 19.6836 41.8873 18.4323 40.9099 18.4323Z" fill="#EC9922"/>
</svg>
