<svg width="40" height="40" viewBox="0 0 40 40" fill="none" xmlns="http://www.w3.org/2000/svg">
<circle cx="20" cy="20" r="20" fill="#444950"/>
<path d="M20 17.861C19.7191 17.861 19.441 17.9163 19.1814 18.0238C18.9219 18.1313 18.6861 18.2889 18.4875 18.4875C18.2889 18.6861 18.1313 18.9219 18.0238 19.1814C17.9163 19.4409 17.861 19.7191 17.861 20C17.861 20.2809 17.9163 20.559 18.0238 20.8185C18.1313 21.0781 18.2889 21.3139 18.4875 21.5125C18.6861 21.7111 18.9219 21.8687 19.1814 21.9762C19.441 22.0837 19.7191 22.139 20 22.139C20.2809 22.139 20.559 22.0837 20.8186 21.9762C21.0781 21.8687 21.3139 21.7111 21.5125 21.5125C21.7111 21.3139 21.8687 21.0781 21.9762 20.8185C22.0837 20.559 22.139 20.2809 22.139 20C22.139 19.7191 22.0837 19.4409 21.9762 19.1814C21.8687 18.9219 21.7111 18.6861 21.5125 18.4875C21.3139 18.2889 21.0781 18.1313 20.8186 18.0238C20.559 17.9163 20.2809 17.861 20 17.861ZM14.008 24.255L13.536 24.135C10.018 23.246 8 21.737 8 19.996C8 18.255 10.018 16.746 13.536 15.857L14.008 15.738L14.141 16.206C14.4974 17.4337 14.9532 18.6303 15.504 19.784L15.605 19.997L15.504 20.21C14.9523 21.3633 14.4964 22.56 14.141 23.788L14.008 24.255ZM13.317 16.95C10.643 17.701 9.002 18.85 9.002 19.996C9.002 21.141 10.643 22.29 13.317 23.042C13.644 22.0019 14.0389 20.9844 14.499 19.996C14.0383 19.0078 13.6435 17.9902 13.317 16.95ZM25.992 24.255L25.859 23.786C25.503 22.5583 25.0468 21.362 24.495 20.209L24.394 19.996L24.495 19.783C25.0466 18.6295 25.5028 17.4329 25.859 16.205L25.992 15.737L26.465 15.856C29.982 16.745 32 18.254 32 19.996C32 21.738 29.982 23.246 26.465 24.135L25.992 24.255ZM25.501 19.996C25.981 21.035 26.378 22.056 26.683 23.042C29.358 22.29 30.998 21.141 30.998 19.996C30.998 18.85 29.357 17.702 26.683 16.95C26.3564 17.9902 25.9616 19.0078 25.501 19.996ZM13.31 16.945L13.177 16.478C12.188 12.992 12.488 10.494 14 9.62199C15.483 8.76599 17.864 9.77699 20.359 12.338L20.699 12.687L20.359 13.036C19.4725 13.9576 18.6624 14.9499 17.937 16.003L17.802 16.196L17.567 16.216C16.2909 16.3166 15.0251 16.5206 13.782 16.826L13.31 16.945ZM15.206 10.315C14.938 10.315 14.701 10.373 14.501 10.488C13.507 11.061 13.331 13.053 14.016 15.741C15.0816 15.5039 16.1616 15.3366 17.249 15.24C17.8764 14.3479 18.5619 13.498 19.301 12.696C17.741 11.177 16.264 10.315 15.206 10.315ZM24.795 30.677C24.794 30.677 24.794 30.677 24.795 30.677C23.37 30.677 21.54 29.604 19.641 27.654L19.301 27.305L19.641 26.956C20.5273 26.0341 21.337 25.0415 22.062 23.988L22.197 23.795L22.431 23.775C23.7078 23.6749 24.9743 23.4713 26.218 23.166L26.69 23.047L26.824 23.515C27.811 26.999 27.512 29.498 26 30.369C25.6327 30.5766 25.2169 30.6829 24.795 30.677ZM20.699 27.296C22.259 28.815 23.736 29.677 24.794 29.677H24.795C25.062 29.677 25.3 29.619 25.499 29.504C26.493 28.931 26.67 26.938 25.984 24.25C24.9181 24.4874 23.8378 24.6547 22.75 24.751C22.1233 25.6437 21.4382 26.4939 20.699 27.296ZM26.69 16.945L26.218 16.826C24.9744 16.5197 23.7079 16.3157 22.431 16.216L22.197 16.196L22.062 16.003C21.3374 14.9495 20.5277 13.9572 19.641 13.036L19.301 12.687L19.641 12.338C22.135 9.77799 24.515 8.76699 26 9.62199C27.512 10.494 27.812 12.992 26.824 16.477L26.69 16.945ZM22.75 15.24C23.892 15.344 24.977 15.513 25.984 15.741C26.67 13.053 26.493 11.061 25.499 10.488C24.511 9.91699 22.654 10.792 20.699 12.696C21.4377 13.4981 22.1229 14.3479 22.75 15.24ZM15.206 30.677C14.7838 30.6831 14.3676 30.5768 14 30.369C12.488 29.498 12.188 27 13.177 23.515L13.309 23.047L13.781 23.166C14.936 23.457 16.21 23.662 17.566 23.775L17.801 23.795L17.935 23.988C18.6606 25.0413 19.4706 26.0339 20.357 26.956L20.697 27.305L20.357 27.654C18.459 29.604 16.629 30.677 15.206 30.677ZM14.016 24.25C13.33 26.938 13.507 28.931 14.501 29.504C15.488 30.067 17.344 29.199 19.301 27.296C18.5622 26.4933 17.8767 25.6432 17.249 24.751C16.1615 24.6548 15.0816 24.4875 14.016 24.25ZM20 24.878C19.177 24.878 18.331 24.842 17.484 24.772L17.249 24.752L17.114 24.559C16.6349 23.8706 16.1845 23.1626 15.764 22.437C15.3447 21.7107 14.9557 20.9674 14.598 20.209L14.498 19.996L14.598 19.783C14.9557 19.0245 15.3447 18.2812 15.764 17.555C16.178 16.839 16.633 16.125 17.114 15.433L17.249 15.24L17.484 15.22C19.1587 15.078 20.8423 15.078 22.517 15.22L22.751 15.24L22.885 15.433C23.8442 16.81 24.6861 18.2652 25.402 19.783L25.503 19.996L25.402 20.209C24.6878 21.7277 23.8458 23.183 22.885 24.559L22.751 24.752L22.517 24.772C21.67 24.842 20.823 24.878 20 24.878ZM17.803 23.794C19.283 23.905 20.717 23.905 22.198 23.794C23.0248 22.5852 23.7589 21.3156 24.394 19.996C23.7601 18.6756 23.0256 17.4058 22.197 16.198C20.7344 16.087 19.2656 16.087 17.803 16.198C16.9741 17.4056 16.2396 18.6754 15.606 19.996C16.2418 21.3154 16.9762 22.585 17.803 23.794Z" fill="#F2F2F2"/>
</svg>
