<svg width="40" height="40" viewBox="0 0 40 40" fill="none" xmlns="http://www.w3.org/2000/svg">
<circle cx="20" cy="20" r="20" fill="#444950"/>
<path d="M20 10C25.5225 10 30 14.4775 30 20C30 25.5225 25.5225 30 20 30C14.4775 30 10 25.5225 10 20C10 14.4775 14.4775 10 20 10ZM18.0125 23.3317C18.1583 23.8692 18.1425 24.3717 17.9925 24.825L17.9383 24.975C17.9183 25.0258 17.895 25.075 17.8733 25.1217C17.7567 25.3633 17.6017 25.5883 17.4108 25.7967C16.8292 26.4292 16.0175 26.6692 15.6692 26.4675C15.2942 26.2492 15.4808 25.355 16.1558 24.6425C16.8817 23.8775 17.9225 23.385 17.9225 23.385V23.3825L18.0125 23.3317ZM26.2717 14.2808C25.82 12.5033 22.8742 11.9192 20.0867 12.91C18.4292 13.4992 16.6333 14.425 15.3425 15.6325C13.8067 17.0667 13.5625 18.3167 13.6633 18.8392C14.0192 20.6817 16.5442 21.8867 17.5825 22.7808V22.7858C17.2767 22.9358 15.0358 24.06 14.5108 25.2233C13.9483 26.4483 14.5983 27.3242 15.0233 27.4358C16.3358 27.7992 17.6858 27.1358 18.4108 26.0617C19.1108 25.0108 19.0492 23.6608 18.7475 22.9983C19.1608 22.8858 19.6475 22.8358 20.2725 22.9117C22.0233 23.1117 22.3733 24.2117 22.2975 24.6617C22.2225 25.1108 21.8617 25.3733 21.7358 25.4483C21.6108 25.5242 21.5733 25.5483 21.585 25.5992C21.5975 25.6742 21.6608 25.6742 21.76 25.6617C21.8975 25.6367 22.6733 25.2867 22.7108 24.4358C22.7483 23.3608 21.7225 22.1617 19.8983 22.1858C19.1483 22.1992 18.6725 22.2617 18.3358 22.3992C18.3108 22.3617 18.285 22.3367 18.2483 22.3117C17.1233 21.0992 15.0358 20.2492 15.1233 18.6367C15.1483 18.0492 15.3608 16.5 19.1233 14.625C22.2108 13.0867 24.6742 13.5125 25.0992 14.45C25.71 15.7867 23.7858 18.275 20.5733 18.6367C19.3483 18.7742 18.7108 18.3 18.5475 18.1242C18.3733 17.9367 18.3483 17.9242 18.2858 17.9625C18.1858 18.0125 18.2483 18.175 18.2858 18.275C18.3858 18.525 18.7733 18.9625 19.4492 19.1875C20.0358 19.375 21.4742 19.4867 23.1992 18.8125C25.1358 18.0633 26.6483 15.975 26.2108 14.225L26.2717 14.2808Z" fill="#F2F2F2"/>
</svg>
